<svg width="32" height="32" viewBox="0 0 32 32" fill="none" xmlns="http://www.w3.org/2000/svg">
<path d="M13.48 14.8667H9.9467C9.1067 14.8667 8.4267 15.5467 8.4267 16.3867V23.2134H13.48V14.8667Z" stroke="white" stroke-width="2" stroke-miterlimit="10" stroke-linecap="round" stroke-linejoin="round"/>
<path d="M17.0147 8.80005H14.988C14.148 8.80005 13.468 9.48005 13.468 10.32V23.2H18.5214V10.32C18.5214 9.48005 17.8547 8.80005 17.0147 8.80005ZM22.064 17.1334H18.5307V23.2H23.584V18.6534C23.5707 17.8134 22.8907 17.1334 22.064 17.1334Z" stroke="white" stroke-width="2" stroke-miterlimit="10" stroke-linecap="round" stroke-linejoin="round"/>
<path d="M12 29.3334H20C26.6667 29.3334 29.3334 26.6667 29.3334 20.0001V12.0001C29.3334 5.33341 26.6667 2.66675 20 2.66675H12C5.33335 2.66675 2.66669 5.33341 2.66669 12.0001V20.0001C2.66669 26.6667 5.33335 29.3334 12 29.3334Z" stroke="white" stroke-width="2" stroke-linecap="round" stroke-linejoin="round"/>
</svg>
