<svg width="39" height="38" viewBox="0 0 39 38" fill="none" xmlns="http://www.w3.org/2000/svg">
<path d="M27.4258 3.16675H23.2549C18.1213 3.16675 14.9129 6.33341 14.9129 11.4001V17.8126H24.9393C25.597 17.8126 26.1425 18.3509 26.1425 19.0001C26.1425 19.6492 25.597 20.1876 24.9393 20.1876H14.9129V26.6001C14.9129 31.6667 18.1213 34.8334 23.2549 34.8334H27.4098C32.5433 34.8334 35.7517 31.6667 35.7517 26.6001V11.4001C35.7678 6.33341 32.5593 3.16675 27.4258 3.16675Z" fill="white"/>
<path d="M7.79176 17.8125L11.1125 14.535C11.3531 14.2975 11.4654 13.9967 11.4654 13.6958C11.4654 13.395 11.3531 13.0783 11.1125 12.8567C10.8861 12.6358 10.5806 12.512 10.2623 12.512C9.94394 12.512 9.63844 12.6358 9.41203 12.8567L4.03788 18.1608C3.57266 18.62 3.57266 19.38 4.03788 19.8392L9.41203 25.1433C9.87725 25.6025 10.6473 25.6025 11.1125 25.1433C11.5777 24.6842 11.5777 23.9242 11.1125 23.465L7.79176 20.1875H14.9145V17.8125H7.79176Z" fill="white"/>
</svg>
