<svg width="39" height="38" viewBox="0 0 39 38" fill="none" xmlns="http://www.w3.org/2000/svg">
<path d="M29.0015 7C29.4238 7 29.8287 7.16113 30.1273 7.44795C30.4259 7.73477 30.5936 8.12379 30.5936 8.52941V31.4706C30.5936 31.8762 30.4259 32.2652 30.1273 32.552C29.8287 32.8389 29.4238 33 29.0015 33H9.89557C9.4733 33 9.06833 32.8389 8.76974 32.552C8.47115 32.2652 8.30341 31.8762 8.30341 31.4706V8.52941C8.30341 8.12379 8.47115 7.73477 8.76974 7.44795C9.06833 7.16113 9.4733 7 9.89557 7" stroke="white" stroke-width="2" stroke-linecap="round" stroke-linejoin="round"/>
<path d="M22.8258 5H16.0712C15.1386 5 14.3826 5.74619 14.3826 6.66667V8.33333C14.3826 9.25381 15.1386 10 16.0712 10H22.8258C23.7585 10 24.5145 9.25381 24.5145 8.33333V6.66667C24.5145 5.74619 23.7585 5 22.8258 5Z" stroke="white" stroke-width="2" stroke-linecap="round" stroke-linejoin="round"/>
<path d="M14.3826 21L17.7599 24L24.5145 18" stroke="white" stroke-width="2" stroke-linecap="round" stroke-linejoin="round"/>
</svg>
