<svg width="39" height="38" viewBox="0 0 39 38" fill="none" xmlns="http://www.w3.org/2000/svg">
<path d="M34.25 20.875V15.375C34.25 8.5 31.5 5.75 24.625 5.75H16.375C9.5 5.75 6.75 8.5 6.75 15.375V23.625C6.75 30.5 9.5 33.25 16.375 33.25H21.875" stroke="white" stroke-width="2" stroke-linecap="round" stroke-linejoin="round"/>
<path d="M34.25 20.875V15.375C34.25 8.5 31.5 5.75 24.625 5.75H16.375C9.5 5.75 6.75 8.5 6.75 15.375V23.625C6.75 30.5 9.5 33.25 16.375 33.25H21.875" stroke="white" stroke-width="2" stroke-linecap="round" stroke-linejoin="round"/>
<path d="M34.25 20.875V15.375C34.25 8.5 31.5 5.75 24.625 5.75H16.375C9.5 5.75 6.75 8.5 6.75 15.375V23.625C6.75 30.5 9.5 33.25 16.375 33.25H21.875M26 29.7163L28.1725 31.875L32.875 26.375M13.625 17.4375V21.5625M20.5 17.4375V21.5625M27.375 17.4375V21.5625" stroke="white" stroke-width="2" stroke-linecap="round" stroke-linejoin="round"/>
</svg>
