<svg width="53" height="52" viewBox="0 0 53 52" fill="none" xmlns="http://www.w3.org/2000/svg">
<path d="M45.7815 29.4314L44.1042 26.638C43.752 26.0154 43.4333 24.8375 43.4333 24.1476V19.8903C43.4313 18.0124 42.8994 16.1735 41.8991 14.5863C40.8989 12.9991 39.4711 11.7284 37.781 10.9214C37.3497 10.1529 36.7205 9.51483 35.9593 9.07378C35.1981 8.63272 34.3328 8.40489 33.4538 8.41409C31.6256 8.41409 29.9819 9.4069 29.1097 10.9718C25.8391 12.6041 23.5748 15.9864 23.5748 19.8903V24.1476C23.5748 24.8375 23.2562 26.0154 22.904 26.6212L21.2099 29.4314C20.5391 30.5588 20.3881 31.804 20.8074 32.9483C21.2099 34.0757 22.166 34.9507 23.4071 35.3714C26.661 36.482 30.0825 37.0205 33.5041 37.0205C36.9257 37.0205 40.3472 36.482 43.6011 35.3882C44.7751 35.0012 45.6808 34.1093 46.1169 32.9483C46.553 31.7872 46.4356 30.5083 45.7815 29.4314ZM38.2171 38.72C37.8644 39.6996 37.2196 40.5465 36.3704 41.1456C35.5212 41.7447 34.5087 42.067 33.4705 42.0686C32.1455 42.0686 30.8373 41.5302 29.9148 40.571C29.3781 40.0662 28.9756 39.3931 28.7407 38.7032C28.9588 38.7368 29.1768 38.7537 29.4116 38.7873C29.7974 38.8378 30.1999 38.8883 30.6025 38.9219C31.5585 39.0061 32.5313 39.0566 33.5041 39.0566C34.4601 39.0566 35.4161 39.0061 36.3554 38.9219C36.7076 38.8883 37.0598 38.8715 37.3953 38.821L38.2171 38.72Z" fill="#9D9D9D"/>
</svg>
