<svg width="40" height="41" viewBox="0 0 40 41" fill="none" xmlns="http://www.w3.org/2000/svg">
<path d="M35.9919 20.2412C35.9919 10.9693 28.6463 3.41382 19.632 3.41382C10.6176 3.41382 3.27197 10.9693 3.27197 20.2412C3.27197 25.1212 5.31697 29.5131 8.55625 32.5926C8.55625 32.6094 8.55625 32.6094 8.53989 32.6262C8.70349 32.7945 8.89981 32.9291 9.06341 33.0805C9.16157 33.1647 9.24337 33.2488 9.34153 33.3161C9.63601 33.5685 9.96321 33.8041 10.274 34.0397L10.6012 34.2753C10.9121 34.4941 11.2393 34.696 11.5828 34.8811C11.6974 34.9484 11.8282 35.0325 11.9428 35.0998C12.27 35.2849 12.6135 35.4532 12.9734 35.6047C13.1043 35.672 13.2352 35.7393 13.3661 35.7898C13.726 35.9412 14.0859 36.0758 14.4458 36.1936C14.5767 36.2441 14.7076 36.2946 14.8385 36.3282C15.2311 36.446 15.6238 36.547 16.0164 36.648C16.1309 36.6816 16.2454 36.7153 16.3763 36.7321C16.8344 36.8331 17.2925 36.9004 17.7669 36.9509C17.8324 36.9509 17.8978 36.9677 17.9632 36.9845C18.5195 37.035 19.0757 37.0686 19.632 37.0686C20.1882 37.0686 20.7444 37.035 21.2843 36.9845C21.3498 36.9845 21.4152 36.9677 21.4806 36.9509C21.9551 36.9004 22.4132 36.8331 22.8712 36.7321C22.9858 36.7153 23.1003 36.6648 23.2312 36.648C23.6238 36.547 24.0328 36.4629 24.4091 36.3282C24.54 36.2778 24.6708 36.2273 24.8017 36.1936C25.1616 36.059 25.5379 35.9412 25.8815 35.7898C26.0124 35.7393 26.1432 35.672 26.2741 35.6047C26.6177 35.4532 26.9612 35.2849 27.3048 35.0998C27.4357 35.0325 27.5502 34.9484 27.6647 34.8811C27.9919 34.6792 28.3191 34.4941 28.6463 34.2753C28.7608 34.208 28.859 34.1238 28.9735 34.0397C29.3007 33.8041 29.6115 33.5685 29.906 33.3161C30.0042 33.232 30.086 33.1479 30.1841 33.0805C30.3641 32.9291 30.5441 32.7777 30.7077 32.6262C30.7077 32.6094 30.7077 32.6094 30.6913 32.5926C33.9469 29.5131 35.9919 25.1212 35.9919 20.2412ZM27.7138 28.6045C23.2802 25.5419 16.0164 25.5419 11.5501 28.6045C10.8303 29.0925 10.2413 29.6646 9.75053 30.2872C7.17352 27.6155 5.72702 24.0047 5.72597 20.2412C5.72597 12.3492 11.9591 5.93793 19.632 5.93793C27.3048 5.93793 33.5379 12.3492 33.5379 20.2412C33.5379 24.1452 32.0001 27.6958 29.5134 30.2872C29.0389 29.6646 28.4336 29.0925 27.7138 28.6045Z" fill="#9D9D9D"/>
<path d="M19.632 11.7097C16.2455 11.7097 13.497 14.5367 13.497 18.02C13.497 21.436 16.0982 24.2125 19.5502 24.3134H19.8447C21.4328 24.2597 22.9384 23.5732 24.0435 22.3989C25.1486 21.2245 25.7666 19.6543 25.767 18.02C25.767 14.5367 23.0185 11.7097 19.632 11.7097Z" fill="#9D9D9D"/>
</svg>
